{
	"asset":{
		"generator":"Khronos glTF Blender I/O v4.1.62",
		"version":"2.0"
	},
	"scene":0,
	"scenes":[
		{
			"name":"Scene",
			"nodes":[
				36
			]
		}
	],
	"nodes":[
		{
			"name":"arm_right_hand_end",
			"rotation":[
				1.2433156371116638e-07,
				-1.3891258276998997e-07,
				-6.798654794692993e-08,
				1
			],
			"translation":[
				2.086162567138672e-07,
				4.3334455490112305,
				-4.172325134277344e-07
			]
		},
		{
			"children":[
				0
			],
			"name":"arm_right_hand",
			"rotation":[
				-1.0774238745625553e-07,
				9.223003871738911e-08,
				1.4994293451309204e-07,
				1
			],
			"scale":[
				1,
				0.9999999403953552,
				1
			],
			"translation":[
				1.4901161193847656e-07,
				8.66689682006836,
				-1.1920928955078125e-07
			]
		},
		{
			"children":[
				1
			],
			"name":"arm_right_bot",
			"rotation":[
				0.04384472966194153,
				-0.042868804186582565,
				0.01689378172159195,
				0.99797523021698
			],
			"scale":[
				1,
				0.9999998807907104,
				1
			],
			"translation":[
				-3.725290298461914e-08,
				12.102442741394043,
				-4.470348358154297e-08
			]
		},
		{
			"children":[
				2
			],
			"name":"arm_right_top",
			"rotation":[
				0.020428285002708435,
				-0.019255883991718292,
				0.06599484384059906,
				0.9974249601364136
			],
			"scale":[
				0.9999999403953552,
				0.9999999403953552,
				0.9999999403953552
			],
			"translation":[
				-3.203749656677246e-07,
				2.4179434776306152,
				3.725290298461914e-07
			]
		},
		{
			"children":[
				3
			],
			"name":"shoulder_right",
			"rotation":[
				-0.0192811731249094,
				-9.8307335605341e-09,
				0.6521013975143433,
				0.757886528968811
			],
			"scale":[
				0.9999998807907104,
				0.9999998807907104,
				1
			],
			"translation":[
				-9.74123477935791,
				0.9974164366722107,
				-0.640030026435852
			]
		},
		{
			"name":"head_end",
			"rotation":[
				2.578750368797955e-08,
				1.6543612251060553e-24,
				-8.05859490249361e-10,
				1
			],
			"translation":[
				-4.4410647381809554e-10,
				4.6227545738220215,
				-1.4198349163052626e-08
			]
		},
		{
			"children":[
				5
			],
			"name":"head",
			"rotation":[
				-2.578750368797955e-08,
				-8.271806125530277e-25,
				8.05859490249361e-10,
				1
			],
			"translation":[
				0,
				9.245506286621094,
				8.632696335553192e-09
			]
		},
		{
			"children":[
				6
			],
			"name":"neck",
			"rotation":[
				1.645462788246732e-08,
				4.963083675318166e-24,
				-5.142071213271038e-10,
				1
			],
			"translation":[
				6.8477845616143895e-09,
				1.9999998807907104,
				-2.318359975106432e-07
			]
		},
		{
			"name":"index_left3_end",
			"rotation":[
				1.9278377294540405e-06,
				1.3695098459720612e-06,
				5.480367690324783e-06,
				1
			],
			"translation":[
				-1.7881393432617188e-06,
				0.20513135194778442,
				1.1920928955078125e-07
			]
		},
		{
			"children":[
				8
			],
			"name":"index_left3",
			"rotation":[
				-3.058463562410907e-06,
				-2.4549663066864014e-06,
				-6.922055035829544e-06,
				1
			],
			"scale":[
				1,
				1,
				0.9999999403953552
			],
			"translation":[
				-6.556510925292969e-07,
				0.4102460741996765,
				2.384185791015625e-07
			]
		},
		{
			"children":[
				9
			],
			"name":"index_left2",
			"rotation":[
				6.034970283508301e-07,
				8.98260623216629e-07,
				-1.2540258467197418e-06,
				1
			],
			"translation":[
				-2.384185791015625e-07,
				0.4102674722671509,
				7.152557373046875e-07
			]
		},
		{
			"children":[
				10
			],
			"name":"index_left1",
			"rotation":[
				4.18629525711367e-07,
				2.7008354663848877e-08,
				3.5087580272374908e-06,
				1
			],
			"scale":[
				1,
				0.9999999403953552,
				1
			],
			"translation":[
				-5.364418029785156e-07,
				0.9230818748474121,
				2.980232238769531e-07
			]
		},
		{
			"children":[
				11
			],
			"name":"index_left0",
			"rotation":[
				0.2698024809360504,
				0.34284865856170654,
				-0.15364204347133636,
				0.886597752571106
			],
			"scale":[
				0.9999999403953552,
				0.9999998211860657,
				1
			],
			"translation":[
				-0.556098222732544,
				1.3312263488769531,
				-0.45352649688720703
			]
		},
		{
			"name":"thumb_left3_end",
			"rotation":[
				-9.313225746154785e-09,
				-1.4435499906539917e-08,
				9.313225746154785e-10,
				1
			],
			"translation":[
				-1.0132789611816406e-06,
				0.2610992193222046,
				5.960464477539062e-07
			]
		},
		{
			"children":[
				13
			],
			"name":"thumb_left3",
			"rotation":[
				-4.0978193283081055e-08,
				-3.026798367500305e-08,
				-4.190951585769653e-08,
				1
			],
			"scale":[
				0.9999999403953552,
				1.0000001192092896,
				1
			],
			"translation":[
				-2.6226043701171875e-06,
				0.5221909880638123,
				4.76837158203125e-07
			]
		},
		{
			"children":[
				14
			],
			"name":"thumb_left2",
			"rotation":[
				1.4882537016092101e-06,
				1.8863939885704895e-06,
				5.252659320831299e-07,
				1
			],
			"scale":[
				1,
				0.9999999403953552,
				0.9999999403953552
			],
			"translation":[
				7.748603820800781e-07,
				0.6266377568244934,
				-4.649162292480469e-06
			]
		},
		{
			"children":[
				15
			],
			"name":"thumb_left1",
			"rotation":[
				-3.3080575576605042e-06,
				-3.717373829204007e-06,
				-7.022172212600708e-07,
				1
			],
			"scale":[
				1,
				1,
				1.0000001192092896
			],
			"translation":[
				1.0728836059570312e-06,
				0.522206723690033,
				-5.960464477539062e-07
			]
		},
		{
			"children":[
				16
			],
			"name":"thumb_left0",
			"rotation":[
				0.5586902499198914,
				0.5400657057762146,
				-0.10668855905532837,
				0.6203320622444153
			],
			"scale":[
				0.9999999403953552,
				0.9999998211860657,
				0.9999999403953552
			],
			"translation":[
				0.7901042699813843,
				0.3498460054397583,
				0.29929816722869873
			]
		},
		{
			"children":[
				12,
				17
			],
			"name":"arm_left_hand",
			"rotation":[
				-0.4162237346172333,
				-0.4136550724506378,
				0.09355679899454117,
				0.8042974472045898
			],
			"scale":[
				0.9999999403953552,
				0.9999999403953552,
				1.0000001192092896
			],
			"translation":[
				-1.4901161193847656e-07,
				8.66689682006836,
				-1.1920928955078125e-07
			]
		},
		{
			"children":[
				18
			],
			"name":"arm_left_bot",
			"rotation":[
				0.04384472966194153,
				0.042868804186582565,
				-0.01689378172159195,
				0.99797523021698
			],
			"scale":[
				1,
				0.9999998807907104,
				1
			],
			"translation":[
				3.725290298461914e-08,
				12.102442741394043,
				-4.470348358154297e-08
			]
		},
		{
			"children":[
				19
			],
			"name":"arm_left_top",
			"rotation":[
				0.020428285002708435,
				0.019255883991718292,
				-0.06599484384059906,
				0.9974249601364136
			],
			"scale":[
				0.9999999403953552,
				0.9999999403953552,
				0.9999999403953552
			],
			"translation":[
				3.203749656677246e-07,
				2.4179434776306152,
				3.725290298461914e-07
			]
		},
		{
			"children":[
				20
			],
			"name":"shoulder_left",
			"rotation":[
				-0.0192811731249094,
				9.8307335605341e-09,
				-0.6521013975143433,
				0.757886528968811
			],
			"scale":[
				0.9999998807907104,
				0.9999998807907104,
				1
			],
			"translation":[
				9.85008716583252,
				0.9974164366722107,
				-0.640030026435852
			]
		},
		{
			"children":[
				4,
				7,
				21
			],
			"name":"body_top2",
			"rotation":[
				-6.993094103791009e-08,
				6.874479695246499e-18,
				1.7675582109077936e-09,
				1
			],
			"translation":[
				-5.018156445935062e-10,
				4.4583964347839355,
				9.188404703763808e-08
			]
		},
		{
			"children":[
				22
			],
			"name":"body_top1",
			"rotation":[
				5.347631315544277e-08,
				0,
				-1.2533510895806899e-09,
				1
			],
			"translation":[
				0,
				5.350074768066406,
				1.5113876372652157e-08
			]
		},
		{
			"children":[
				23
			],
			"name":"body_top0",
			"rotation":[
				-4.547473508864641e-13,
				0,
				0,
				1
			],
			"translation":[
				-7.450580596923828e-09,
				4.458396911621094,
				3.264549093273672e-07
			]
		},
		{
			"name":"leg_right_foot_end",
			"rotation":[
				7.729977369308472e-08,
				-3.5427510738372803e-06,
				1.6763806343078613e-08,
				1
			],
			"translation":[
				2.384185791015625e-07,
				8.555521011352539,
				-4.76837158203125e-07
			]
		},
		{
			"children":[
				25
			],
			"name":"leg_right_foot",
			"rotation":[
				-1.741573356639492e-07,
				-4.2631296537365415e-07,
				-1.480803035747158e-07,
				1
			],
			"scale":[
				0.9999998807907104,
				0.9999998807907104,
				0.9999999403953552
			],
			"translation":[
				-2.384185791015625e-07,
				4.991098880767822,
				1.1920928955078125e-07
			]
		},
		{
			"children":[
				26
			],
			"name":"leg_right_bot",
			"rotation":[
				0.019046703353524208,
				-0.9721918106079102,
				0.09381388127803802,
				0.21372705698013306
			],
			"scale":[
				0.9999998807907104,
				1.0000001192092896,
				0.9999999403953552
			],
			"translation":[
				-9.5367431640625e-07,
				6.257350921630859,
				0
			]
		},
		{
			"children":[
				27
			],
			"name":"leg_right_top",
			"rotation":[
				-0.9280683398246765,
				4.0140260004761785e-09,
				-0.3631703853607178,
				0.08244078606367111
			],
			"scale":[
				0.9999998211860657,
				1,
				0.9999985694885254
			],
			"translation":[
				-6.692399978637695,
				-1.7879760265350342,
				-0.20060482621192932
			]
		},
		{
			"name":"leg_left_foot_end",
			"rotation":[
				5.8673325753488825e-08,
				-1.7308632322965423e-06,
				-4.470348358154297e-08,
				1
			],
			"scale":[
				0.9999999403953552,
				1,
				0.9999999403953552
			],
			"translation":[
				-2.384185791015625e-07,
				8.574305534362793,
				2.384185791015625e-07
			]
		},
		{
			"children":[
				29
			],
			"name":"leg_left_foot",
			"rotation":[
				-1.5320257773510093e-07,
				-4.6833888518449385e-06,
				1.2572856178394431e-07,
				1
			],
			"scale":[
				0.9999999403953552,
				0.9999999403953552,
				0.9999999403953552
			],
			"translation":[
				2.384185791015625e-07,
				4.991098880767822,
				1.1920928955078125e-07
			]
		},
		{
			"children":[
				30
			],
			"name":"leg_left_bot",
			"rotation":[
				0.019046703353524208,
				0.9721918106079102,
				-0.09381388127803802,
				0.21372705698013306
			],
			"scale":[
				0.9999998807907104,
				1.0000001192092896,
				0.9999999403953552
			],
			"translation":[
				9.5367431640625e-07,
				6.257350921630859,
				0
			]
		},
		{
			"children":[
				31
			],
			"name":"leg_left_top",
			"rotation":[
				-0.9280683398246765,
				-4.0140260004761785e-09,
				0.3631703853607178,
				0.08244078606367111
			],
			"scale":[
				0.9999998211860657,
				1,
				0.9999985694885254
			],
			"translation":[
				6.801252365112305,
				-1.7879760265350342,
				-0.20060482621192932
			]
		},
		{
			"children":[
				24,
				28,
				32
			],
			"name":"body",
			"rotation":[
				-5.009043889003806e-06,
				0,
				0,
				1
			],
			"translation":[
				3.725290298461914e-09,
				21.395130157470703,
				-0.00021465135796461254
			]
		},
		{
			"children":[
				33
			],
			"name":"root",
			"rotation":[
				-0.7071031928062439,
				0,
				0,
				0.7071103453636169
			],
			"translation":[
				-0.054426029324531555,
				-3.131540298461914,
				31.0034122467041
			]
		},
		{
			"mesh":0,
			"name":"sample_3",
			"skin":0
		},
		{
			"children":[
				35,
				34
			],
			"name":"rig",
			"rotation":[
				0.7071068286895752,
				0,
				0,
				0.7071068286895752
			]
		}
	],
	"materials":[
		{
			"doubleSided":true,
			"name":"Material_0.001",
			"pbrMetallicRoughness":{
				"baseColorTexture":{
					"index":0
				}
			}
		}
	],
	"meshes":[
		{
			"name":"sample_3",
			"primitives":[
				{
					"attributes":{
						"POSITION":0,
						"NORMAL":1,
						"TEXCOORD_0":2,
						"JOINTS_0":3,
						"WEIGHTS_0":4
					},
					"indices":5,
					"material":0
				}
			]
		}
	],
	"textures":[
		{
			"sampler":0,
			"source":0
		}
	],
	"images":[
		{
			"bufferView":6,
			"mimeType":"image/png",
			"name":"Image_0"
		}
	],
	"skins":[
		{
			"inverseBindMatrices":6,
			"joints":[
				34,
				33,
				24,
				23,
				22,
				4,
				3,
				2,
				1,
				0,
				7,
				6,
				5,
				21,
				20,
				19,
				18,
				12,
				11,
				10,
				9,
				8,
				17,
				16,
				15,
				14,
				13,
				28,
				27,
				26,
				25,
				32,
				31,
				30,
				29
			],
			"name":"rig"
		}
	],
	"accessors":[
		{
			"bufferView":0,
			"componentType":5126,
			"count":26919,
			"max":[
				35.812461853027344,
				31.003416061401367,
				16.007978439331055
			],
			"min":[
				-35.812461853027344,
				-31.003408432006836,
				-16.007980346679688
			],
			"type":"VEC3"
		},
		{
			"bufferView":1,
			"componentType":5126,
			"count":26919,
			"type":"VEC3"
		},
		{
			"bufferView":2,
			"componentType":5126,
			"count":26919,
			"type":"VEC2"
		},
		{
			"bufferView":3,
			"componentType":5121,
			"count":26919,
			"type":"VEC4"
		},
		{
			"bufferView":4,
			"componentType":5126,
			"count":26919,
			"type":"VEC4"
		},
		{
			"bufferView":5,
			"componentType":5123,
			"count":28788,
			"type":"SCALAR"
		},
		{
			"bufferView":7,
			"componentType":5126,
			"count":35,
			"type":"MAT4"
		}
	],
	"bufferViews":[
		{
			"buffer":0,
			"byteLength":323028,
			"byteOffset":0,
			"target":34962
		},
		{
			"buffer":0,
			"byteLength":323028,
			"byteOffset":323028,
			"target":34962
		},
		{
			"buffer":0,
			"byteLength":215352,
			"byteOffset":646056,
			"target":34962
		},
		{
			"buffer":0,
			"byteLength":107676,
			"byteOffset":861408,
			"target":34962
		},
		{
			"buffer":0,
			"byteLength":430704,
			"byteOffset":969084,
			"target":34962
		},
		{
			"buffer":0,
			"byteLength":57576,
			"byteOffset":1399788,
			"target":34963
		},
		{
			"buffer":0,
			"byteLength":1123912,
			"byteOffset":1457364
		},
		{
			"buffer":0,
			"byteLength":2240,
			"byteOffset":2581276
		}
	],
	"samplers":[
		{
			"magFilter":9729,
			"minFilter":9987
		}
	],
	"buffers":[
		{
			"byteLength":2583516,
			"uri":"data:application/octet-stream;base64,"
		}
	]
}
